<?xml version="1.0" standalone="no"?>
<!DOCTYPE svg PUBLIC "-//W3C//DTD SVG 1.1//EN" "http://www.w3.org/Graphics/SVG/1.1/DTD/svg11.dtd">

<svg width="328.0" height="454.0" viewBox="0 0 328.0 454.0" version="1.1" xmlns="http://www.w3.org/2000/svg" xmlns:xlink="http://www.w3.org/1999/xlink">
<!-- automatically generated by aafigure --><line x1="10.0" y1="10.0" x2="290.0" y2="10.0" stroke="#000000" stroke-width="2.0" />
<line x1="10.0" y1="10.0" x2="10.0" y2="38.0" stroke="#000000" stroke-width="2.0" />
<line x1="290.0" y1="10.0" x2="290.0" y2="38.0" stroke="#000000" stroke-width="2.0" />
<line x1="10.0" y1="38.0" x2="290.0" y2="38.0" stroke="#000000" stroke-width="2.0" />
<g>
    <line x1="108.0" y1="45.0" x2="111.5" y2="55.5" stroke="#000000" stroke-width="2.0" />
    <line x1="108.0" y1="45.0" x2="104.5" y2="55.5" stroke="#000000" stroke-width="2.0" />
    <line x1="108.0" y1="115.0" x2="104.5" y2="104.5" stroke="#000000" stroke-width="2.0" />
    <line x1="108.0" y1="115.0" x2="111.5" y2="104.5" stroke="#000000" stroke-width="2.0" />
    <line x1="108.0" y1="45.0" x2="108.0" y2="115.0" stroke="#000000" stroke-width="2.0" />
</g>
<line x1="10.0" y1="122.0" x2="318.0" y2="122.0" stroke="#000000" stroke-width="2.0" />
<line x1="10.0" y1="122.0" x2="10.0" y2="276.0" stroke="#000000" stroke-width="2.0" />
<line x1="318.0" y1="122.0" x2="318.0" y2="276.0" stroke="#000000" stroke-width="2.0" />
<line x1="31.0" y1="206.0" x2="45.0" y2="206.0" stroke="#000000" stroke-width="2.0" />
<line x1="31.0" y1="220.0" x2="45.0" y2="220.0" stroke="#000000" stroke-width="2.0" />
<line x1="31.0" y1="234.0" x2="45.0" y2="234.0" stroke="#000000" stroke-width="2.0" />
<line x1="10.0" y1="276.0" x2="318.0" y2="276.0" stroke="#000000" stroke-width="2.0" />
<g>
    <line x1="108.0" y1="283.0" x2="111.5" y2="293.5" stroke="#000000" stroke-width="2.0" />
    <line x1="108.0" y1="283.0" x2="104.5" y2="293.5" stroke="#000000" stroke-width="2.0" />
    <line x1="108.0" y1="367.0" x2="104.5" y2="356.5" stroke="#000000" stroke-width="2.0" />
    <line x1="108.0" y1="367.0" x2="111.5" y2="356.5" stroke="#000000" stroke-width="2.0" />
    <line x1="108.0" y1="283.0" x2="108.0" y2="367.0" stroke="#000000" stroke-width="2.0" />
</g>
<line x1="10.0" y1="374.0" x2="164.0" y2="374.0" stroke="#000000" stroke-width="2.0" />
<line x1="10.0" y1="374.0" x2="10.0" y2="444.0" stroke="#000000" stroke-width="2.0" />
<line x1="164.0" y1="374.0" x2="164.0" y2="444.0" stroke="#000000" stroke-width="2.0" />
<line x1="10.0" y1="444.0" x2="164.0" y2="444.0" stroke="#000000" stroke-width="2.0" />
<text x="31.0" y="28.900000000000002" font-family="monospace" font-size="14.0" fill="#000000" >
  Wifi to the world
</text>
<text x="143.0" y="84.89999999999999" font-family="monospace" font-size="14.0" fill="#000000" >
  wifi
</text>
<text x="73.0" y="140.9" font-family="monospace" font-size="14.0" fill="#000000" >
  wlan0
</text>
<text x="129.0" y="168.9" font-family="monospace" font-size="14.0" fill="#000000" >
  PI
</text>
<text x="31.0" y="196.9" font-family="monospace" font-size="14.0" fill="#000000" >
  runs:
</text>
<text x="59.0" y="210.9" font-family="monospace" font-size="14.0" fill="#000000" >
  tftp server
</text>
<text x="59.0" y="224.9" font-family="monospace" font-size="14.0" fill="#000000" >
  local DHCP server
</text>
<text x="59.0" y="238.90000000000003" font-family="monospace" font-size="14.0" fill="#000000" >
  nfs server
</text>
<text x="73.0" y="266.90000000000003" font-family="monospace" font-size="14.0" fill="#000000" >
  eth0
</text>
<text x="129.0" y="322.90000000000003" font-family="monospace" font-size="14.0" fill="#000000" >
  ethernet
</text>
<text x="129.0" y="336.90000000000003" font-family="monospace" font-size="14.0" fill="#000000" >
  192.168.3.x
</text>
<text x="73.0" y="392.90000000000003" font-family="monospace" font-size="14.0" fill="#000000" >
  eth0
</text>
<text x="59.0" y="420.90000000000003" font-family="monospace" font-size="14.0" fill="#000000" >
  DUT
</text>
</svg>
